Coordinates
version=1
nRows=16
nColumns=63
inDegrees=yes

Units are S.I. units (second, meters, Newtons, ...)
If the header above contains a line with 'inDegrees', this indicates whether rotational values are in degrees (yes) or radians (no).

endheader
time	pelvis_tilt	pelvis_list	pelvis_rotation	pelvis_tx	pelvis_ty	pelvis_tz	hip_flexion_r	hip_adduction_r	hip_rotation_r	knee_angle_r	knee_angle_r_beta	ankle_angle_r	subtalar_angle_r	mtp_angle_r	hip_flexion_l	hip_adduction_l	hip_rotation_l	knee_angle_l	knee_angle_l_beta	ankle_angle_l	subtalar_angle_l	mtp_angle_l	L5_S1_Flex_Ext	L5_S1_Lat_Bending	L5_S1_axial_rotation	L4_L5_Flex_Ext	L4_L5_Lat_Bending	L4_L5_axial_rotation	L3_L4_Flex_Ext	L3_L4_Lat_Bending	L3_L4_axial_rotation	L2_L3_Flex_Ext	L2_L3_Lat_Bending	L2_L3_axial_rotation	L1_L2_Flex_Ext	L1_L2_Lat_Bending	L1_L2_axial_rotation	L1_T12_Flex_Ext	L1_T12_Lat_Bending	L1_T12_axial_rotation	Abs_r3	Abs_r2	Abs_r1	Abs_t1	Abs_t2	neck_flexion	neck_bending	neck_rotation	arm_flex_r	arm_add_r	arm_rot_r	elbow_flex_r	pro_sup_r	wrist_flex_r	wrist_dev_r	arm_flex_l	arm_add_l	arm_rot_l	elbow_flex_l	pro_sup_l	wrist_flex_l	wrist_dev_l
2.468085	-4.459173	-2.753101	98.879847	0.100536	0.470936	0.802791	0.592708	1.204388	-9.883311	6.048789	0.105571	30.782473	15.324011	0.000000	1.585067	-0.852184	6.696921	6.261775	0.109289	25.687571	0.764989	0.000000	-0.154930	-0.291859	-1.270282	-0.287720	-0.388172	-1.349674	-0.254534	-0.709625	-1.349674	-0.177069	-0.709625	-1.111496	-0.143868	-0.595158	-1.032104	-0.088527	-0.452089	-0.952711	-1.106647	-3.301564	-7.064926	0.000000	0.000000	12.248771	-2.674905	6.960950	4.305487	-7.407516	16.188638	43.392988	83.264581	-5.780960	-2.638048	5.023031	-12.036039	31.777373	43.748014	86.576255	-10.016145	5.824118
2.489362	-4.438688	-2.861051	99.154477	0.100010	0.470786	0.804119	0.842706	1.162837	-10.353261	6.243657	0.108972	30.776953	15.514553	0.000000	1.975521	-0.858402	6.277121	6.608603	0.115342	25.709530	1.443955	0.000000	-0.174273	-0.286162	-1.314829	-0.323643	-0.380595	-1.397006	-0.286313	-0.695774	-1.397006	-0.199177	-0.695774	-1.150476	-0.161830	-0.583542	-1.068299	-0.099580	-0.443265	-0.986122	-1.244815	-3.237122	-7.312686	0.000000	0.000000	11.789308	-2.985619	6.535068	4.292855	-7.354910	14.935576	43.797952	82.984398	-6.701113	-2.043180	5.656131	-11.928738	32.988940	43.004796	87.212873	-10.185304	5.481107
2.510638	-4.421486	-2.959143	99.378047	0.099535	0.470652	0.805296	1.071279	1.119700	-10.814756	6.434749	0.112308	30.772014	15.769817	0.000000	2.332192	-0.867842	5.750725	6.935958	0.121055	25.764463	2.180142	0.000000	-0.192982	-0.279466	-1.349126	-0.358387	-0.371689	-1.433447	-0.317050	-0.679493	-1.433447	-0.220559	-0.679493	-1.180485	-0.179203	-0.569887	-1.096165	-0.110270	-0.432892	-1.011845	-1.378452	-3.161373	-7.503435	0.000000	0.000000	11.322285	-3.214165	6.229173	4.250982	-7.283263	13.540378	44.236979	82.684806	-7.545802	-1.577000	6.266726	-11.809002	34.303088	42.180691	87.773786	-10.418839	5.111964
2.531915	-4.407566	-3.038012	99.554634	0.099127	0.470561	0.806238	1.240844	1.085681	-11.209021	6.576610	0.114784	30.740802	16.029937	0.000000	2.628382	-0.884880	5.098414	7.221570	0.126040	25.860201	3.027236	0.000000	-0.210810	-0.272438	-1.369785	-0.391496	-0.362342	-1.455396	-0.346340	-0.662405	-1.455396	-0.240935	-0.662405	-1.198561	-0.195758	-0.555555	-1.112950	-0.120457	-0.422006	-1.027338	-1.505796	-3.081868	-7.618331	0.000000	0.000000	10.855892	-3.355275	5.957115	4.169244	-7.193185	12.096285	44.727252	82.405383	-8.446734	-1.200582	6.869613	-11.688278	35.803341	41.288096	88.202035	-10.701811	4.690403
2.553191	-4.403429	-3.105728	99.693860	0.098792	0.470520	0.806935	1.349363	1.058895	-11.515132	6.649678	0.116059	30.672102	16.245531	0.000000	2.869522	-0.900096	4.387573	7.459829	0.130199	25.984162	3.923243	0.000000	-0.227049	-0.266723	-1.373816	-0.421653	-0.354742	-1.459680	-0.373019	-0.648511	-1.459680	-0.259494	-0.648511	-1.202089	-0.210838	-0.543902	-1.116226	-0.129736	-0.413154	-1.030362	-1.621789	-3.017226	-7.640753	0.000000	0.000000	10.429472	-3.453387	5.601158	4.025257	-7.077079	10.598568	45.258085	82.181364	-9.276079	-0.873924	7.451850	-11.564090	37.414160	40.375547	88.534997	-10.965014	4.272853
2.574468	-4.418731	-3.162637	99.747361	0.098611	0.470545	0.807368	1.414036	1.023879	-11.715960	6.681090	0.116607	30.579672	16.464873	0.000000	3.041695	-0.905246	3.579328	7.636774	0.133287	26.125086	4.864093	0.000000	-0.241876	-0.263435	-1.353116	-0.449188	-0.350368	-1.437686	-0.397378	-0.640516	-1.437686	-0.276440	-0.640516	-1.183977	-0.224606	-0.537196	-1.099407	-0.138208	-0.408061	-1.014837	-1.727696	-2.980028	-7.525626	0.000000	0.000000	10.043242	-3.490559	5.183156	3.800107	-6.931094	9.119403	45.833325	82.060535	-10.090624	-0.567705	8.001198	-11.442783	39.150993	39.464742	88.747939	-11.310169	3.774405
2.595745	-4.448589	-3.205482	99.761681	0.098499	0.470652	0.807592	1.409752	0.989861	-11.801078	6.623209	0.115597	30.448259	16.617311	0.000000	3.149897	-0.899104	2.753290	7.745806	0.135190	26.284862	5.825462	0.000000	-0.256766	-0.261939	-1.317957	-0.476840	-0.348379	-1.400330	-0.421841	-0.636879	-1.400330	-0.293458	-0.636879	-1.153213	-0.238433	-0.534146	-1.070840	-0.146716	-0.405744	-0.988468	-1.834053	-2.963107	-7.330083	0.000000	0.000000	9.708917	-3.404811	4.763517	3.510656	-6.778961	7.766847	46.389565	82.032457	-10.764344	-0.411703	8.498806	-11.319359	40.848581	38.633366	88.789959	-11.534312	3.393108
2.617021	-4.484139	-3.255810	99.790210	0.098393	0.470823	0.807672	1.370248	0.962656	-11.843028	6.491151	0.113292	30.281084	16.694105	0.000000	3.244238	-0.885682	2.016907	7.811099	0.136329	26.456576	6.745946	0.000000	-0.267888	-0.262554	-1.280431	-0.497495	-0.349196	-1.360458	-0.440113	-0.638373	-1.360458	-0.306169	-0.638373	-1.120377	-0.248761	-0.535399	-1.040350	-0.153071	-0.406696	-0.960323	-1.913498	-2.970059	-7.121371	0.000000	0.000000	9.443429	-3.358146	4.155776	3.150202	-6.630315	6.567703	46.947374	82.139298	-11.181667	-0.143691	8.923726	-11.208925	42.431752	37.938475	88.891902	-11.667313	3.136229
2.638298	-4.522146	-3.304609	99.823220	0.098276	0.471057	0.807658	1.296561	0.941259	-11.836092	6.294153	0.109854	30.093095	16.699859	0.000000	3.316141	-0.865825	1.378196	7.828272	0.136629	26.640122	7.598722	0.000000	-0.277105	-0.263899	-1.243493	-0.514612	-0.350986	-1.321212	-0.455256	-0.641644	-1.321212	-0.316704	-0.641644	-1.088057	-0.257320	-0.538143	-1.010338	-0.158338	-0.408780	-0.932620	-1.979335	-2.985280	-6.915937	0.000000	0.000000	9.231638	-3.298034	3.479624	2.746197	-6.494139	5.610231	47.461121	82.411739	-11.367038	0.112221	9.269260	-11.120146	43.854902	37.415025	88.961076	-11.694550	3.000400
2.659574	-4.567592	-3.345003	99.825531	0.098147	0.471343	0.807576	1.199347	0.912217	-11.794529	6.058457	0.105740	29.911437	16.701268	0.000000	3.349776	-0.832561	0.805954	7.792399	0.136003	26.823122	8.373344	0.000000	-0.285404	-0.265529	-1.200842	-0.530023	-0.353154	-1.275894	-0.468890	-0.645608	-1.275894	-0.326188	-0.645608	-1.050736	-0.265026	-0.541468	-0.975684	-0.163080	-0.411305	-0.900631	-2.038611	-3.003722	-6.678721	0.000000	0.000000	9.037401	-3.240883	2.758749	2.322009	-6.385783	4.945453	47.889800	82.888296	-11.383090	0.181219	9.561153	-11.061254	45.212830	37.057795	88.969319	-11.725547	2.969583
2.680851	-4.597079	-3.382465	99.889238	0.097893	0.471644	0.807525	1.077151	0.906112	-11.707581	5.759866	0.100529	29.723237	16.569128	0.000000	3.392023	-0.803972	0.424687	7.750851	0.135278	27.000252	9.032286	0.000000	-0.292848	-0.264430	-1.175634	-0.543847	-0.351692	-1.249111	-0.481119	-0.642936	-1.249111	-0.334696	-0.642936	-1.028680	-0.271938	-0.539226	-0.955203	-0.167333	-0.409603	-0.881726	-2.091782	-2.991289	-6.538524	0.000000	0.000000	8.854996	-3.198452	2.080960	1.922151	-6.288177	4.552373	48.252886	83.409939	-11.185313	0.254662	9.744203	-11.011217	46.281434	36.857915	88.974581	-11.580752	3.063169
2.702128	-4.618968	-3.399394	99.988411	0.097561	0.471961	0.807498	0.912395	0.919238	-11.535672	5.399739	0.094243	29.529092	16.279038	0.000000	3.409254	-0.774401	0.223807	7.691562	0.134243	27.128054	9.534044	0.000000	-0.302020	-0.261859	-1.170849	-0.560882	-0.348273	-1.244027	-0.496189	-0.636684	-1.244027	-0.345179	-0.636684	-1.024493	-0.280456	-0.533983	-0.951315	-0.172574	-0.405620	-0.878137	-2.157300	-2.962204	-6.511912	0.000000	0.000000	8.659943	-3.172355	1.479825	1.598254	-6.197335	4.479058	48.551854	83.923671	-10.747843	0.352659	9.784497	-10.970153	46.985400	36.816993	88.956338	-11.235973	3.277123
2.723404	-4.632433	-3.413071	100.154891	0.097112	0.472252	0.807505	0.733659	0.942628	-11.395663	5.010020	0.087441	29.356268	15.944529	0.000000	3.438532	-0.741154	0.263697	7.650331	0.133523	27.225946	9.860054	0.000000	-0.310675	-0.258280	-1.183118	-0.576955	-0.343513	-1.257063	-0.510408	-0.627982	-1.257063	-0.355071	-0.627982	-1.035228	-0.288493	-0.526685	-0.961283	-0.177520	-0.400076	-0.887338	-2.219122	-2.921717	-6.580147	0.000000	0.000000	8.458117	-3.145859	0.936683	1.269693	-6.097160	4.580684	48.916441	84.468407	-10.235642	0.491616	9.749690	-10.931640	47.478140	36.850351	88.969421	-10.735748	3.524652
2.744681	-4.647273	-3.416860	100.366563	0.096613	0.472525	0.807518	0.535631	0.971087	-11.227074	4.602016	0.080320	29.195956	15.516246	0.000000	3.460590	-0.697989	0.523598	7.614633	0.132900	27.278852	9.985501	0.000000	-0.319627	-0.255602	-1.213691	-0.593580	-0.339951	-1.289546	-0.525116	-0.621471	-1.289546	-0.365302	-0.621471	-1.061979	-0.296806	-0.521224	-0.986124	-0.182635	-0.395928	-0.910268	-2.283065	-2.891425	-6.750183	0.000000	0.000000	8.234903	-3.086809	0.484291	0.955907	-6.009142	4.933639	49.377048	84.957850	-9.573698	0.691072	9.613573	-10.877738	47.658084	36.946881	88.997832	-10.037924	3.826483
2.765957	-4.654638	-3.415166	100.603030	0.096114	0.472776	0.807517	0.330416	1.010299	-11.050210	4.188628	0.073105	29.039005	15.049441	0.000000	3.478544	-0.657901	0.940631	7.581908	0.132329	27.302104	9.952827	0.000000	-0.327906	-0.253489	-1.252747	-0.608955	-0.337140	-1.331043	-0.538717	-0.616333	-1.331043	-0.374764	-0.616333	-1.096153	-0.304494	-0.516915	-1.017857	-0.187366	-0.392654	-0.939560	-2.342203	-2.867518	-6.967401	0.000000	0.000000	7.980946	-3.015002	0.044762	0.618667	-5.973461	5.523869	50.031589	85.439175	-8.738680	1.001941	9.434669	-10.795734	47.652304	37.041427	88.953137	-9.150039	4.137544
2.787234	-4.672624	-3.398568	100.875604	0.095601	0.473045	0.807493	0.106362	1.044679	-10.859323	3.782742	0.066021	28.890419	14.515030	0.000000	3.477206	-0.601435	1.538523	7.548524	0.131747	27.269129	9.708611	0.000000	-0.337002	-0.253699	-1.303047	-0.625846	-0.337420	-1.384488	-0.553660	-0.616845	-1.384488	-0.385159	-0.616845	-1.140166	-0.312940	-0.517344	-1.058726	-0.192563	-0.392980	-0.977286	-2.407169	-2.869898	-7.247159	0.000000	0.000000	7.676640	-2.894070	-0.303942	0.251852	-5.996461	6.387177	50.899251	85.847315	-7.730286	1.362447	9.186770	-10.662120	47.346498	37.170667	88.848687	-8.087968	4.487863
